/* XPM */
static char *magick[] = {
/* columns rows colors chars-per-pixel */
"32 32 61 1",
"  c #000000",
". c #262525",
"X c #282727",
"o c #2b2a2a",
"O c #373636",
"+ c gray24",
"@ c #316f6d",
"# c #34716f",
"$ c #357472",
"% c #357976",
"& c #357d7b",
"* c #387c7a",
"= c #4a4a4c",
"- c #565656",
"; c #5b5b5b",
": c #636363",
"> c #6b6b6b",
", c #737373",
"< c #7c7c7c",
"1 c #009000",
"2 c #39807e",
"3 c #38fb30",
"4 c #378a87",
"5 c #3a8381",
"6 c #3c8986",
"7 c #3b8a88",
"8 c #3f918e",
"9 c #3d9591",
"0 c #40928f",
"q c #409591",
"w c #8c1513",
"e c #8c1f18",
"r c #a73634",
"t c firebrick1",
"y c #e04725",
"u c #ff4949",
"i c #ff6161",
"p c magenta",
"a c #aa9334",
"s c yellow",
"d c #ffdf54",
"f c #808080",
"g c #8a8a8c",
"h c #969695",
"j c #9c9c9c",
"k c #9f9fa4",
"l c #a4a4a4",
"z c #a5a5a9",
"x c #ababac",
"c c #adadb1",
"v c #b3b3b3",
"b c #b6b6b9",
"n c #bbbbbc",
"m c #c3c3c3",
"M c #cbcbcb",
"N c #d3d3d3",
"B c #dbdbdb",
"V c #e3e3e3",
"C c #eaeaea",
"Z c #fefefc",
"A c None",
/* pixels */
"A                    AAAAAAAAAAA",
" mZZZZZZZZZZZZZZZZZZm AAAAAAAAAA",
" ZCCVVVBBNNNMMMmmnnbf AAAAAAAAAA",
" ZC:==============-bf AAAAAAAAAA",
" ZV=              Zv< AAAAAAAAAA",
" ZC= ss           Zvf AAAAAAAAAA",
" ZV=s ss          Zxf AAAAAAAAAA",
" ZV=s sssssssss   Zxf AAAAAAAAAA",
" ZV=s ss    s s   Zxf          A",
" ZB= ss     s s   Zlf nbbcczzkN ",
" ZB=              Zlf nbvcczzN< ",
" ZN=              Zzf nnbvczB<f ",
" ZN=              Zjf ZZZZZV<<< ",
" ZN=ZZZZZZZZZZZZZZZjf Mmmnb,,<, ",
" ZNMMMmmnnbvvvxzlljjf ====v,,,, ",
" mffffffffff<f<ffffff 4%@Zv>,,, ",
"A                    77%#Zx>>>> ",
"AAA  AAAAAAA V=90q00002%@Zx>>>> ",
"AA  AAAAAAAA B=90qq062%#@Zl:>:> ",
"AA   AAAAAAA B=4776622$@@Zj:::: ",
"AAA  AAAAAAA N=&&&&&%#@@@Zl;::; ",
"AA  AA   AAA N=###@#@@@@@Zj;;: A",
"AA    iradAA N=ZZZZZZZZZZZj-;+f ",
"AAA  uuey AA MMmAnvvxxlljhh-Ofn ",
"AAAAA twadAAA o..XXXoooooooofn< ",
"AAAAAA   AAAA ffffffffffffffm,< ",
"AAAAAAAAAAAA ZZZZZZZZZZZZZZm>,, ",
"AAAAAAAAAAAA CCVBBNMMmhhvxx:>> A",
"AAAAAAAAAAAA CCVBBNMg    gl:: AA",
"AAAAAAAAAAAA C13BNMMmmVBvxl; AAA",
"AAAAAAAAAAAA CVVBNMMmnvxxxl AAAA",
"AAAAAAAAAAAAA              AAAAA"
};
